<?xml version="1.0" encoding="UTF-8" standalone="no"?>
<svg
   xmlns:dc="http://purl.org/dc/elements/1.1/"
   xmlns:cc="http://creativecommons.org/ns#"
   xmlns:rdf="http://www.w3.org/1999/02/22-rdf-syntax-ns#"
   xmlns:svg="http://www.w3.org/2000/svg"
   xmlns="http://www.w3.org/2000/svg"
   xmlns:sodipodi="http://sodipodi.sourceforge.net/DTD/sodipodi-0.dtd"
   xmlns:inkscape="http://www.inkscape.org/namespaces/inkscape"
   class="product-logo-icon"
   version="1.1"
   id="Layer_1"
   x="0px"
   y="0px"
   width="512px"
   height="512px"
   viewBox="0 190 512 100"
   enable-background="new 0 0 512 512"
   data-reactid="65"
   sodipodi:docname="logo-globochat.svg"
   inkscape:version="0.92.2 (5c3e80d, 2017-08-06)">
  <metadata
     id="metadata121">
    <rdf:RDF>
      <cc:Work
         rdf:about="">
        <dc:format>image/svg+xml</dc:format>
        <dc:type
           rdf:resource="http://purl.org/dc/dcmitype/StillImage" />
        <dc:title></dc:title>
      </cc:Work>
    </rdf:RDF>
  </metadata>
  <defs
     id="defs119" />
  <sodipodi:namedview
     pagecolor="#ffffff"
     bordercolor="#666666"
     borderopacity="1"
     objecttolerance="10"
     gridtolerance="10"
     guidetolerance="10"
     inkscape:pageopacity="0"
     inkscape:pageshadow="2"
     inkscape:window-width="1311"
     inkscape:window-height="713"
     id="namedview117"
     showgrid="false"
     showguides="false"
     inkscape:snap-text-baseline="true"
     inkscape:snap-bbox="false"
     inkscape:zoom="0.49477893"
     inkscape:cx="560.71283"
     inkscape:cy="358.6212"
     inkscape:window-x="55"
     inkscape:window-y="27"
     inkscape:window-maximized="1"
     inkscape:current-layer="logo_globoplay" />
  <g
     id="logo_globoplay"
     data-reactid="66">
    <path
       fill="#FFF"
       d="M299.099,195.271c-24.846,0-45.062,20.215-45.062,45.062c0,24.845,20.216,45.058,45.062,45.058 c24.847,0,45.062-20.213,45.062-45.058C344.16,215.486,323.946,195.271,299.099,195.271z M299.099,277.131 c-20.292,0-36.8-16.506-36.8-36.798c0-20.291,16.508-36.8,36.8-36.8s36.799,16.509,36.799,36.8 C335.898,260.625,319.391,277.131,299.099,277.131z"
       data-reactid="67"
       id="path103"
       style="fill:#ffffff" />
    <path
       fill="#FFF"
       d="M320.269,237.653l-30.621-17.678c-2.552-1.475-4.643-0.27-4.643,2.681v35.35 c0,2.951,2.091,4.158,4.643,2.684l30.621-17.675C322.822,241.54,322.822,239.127,320.269,237.653z"
       data-reactid="68"
       id="path105"
       style="fill:#ffffff" />
    <path
       fill="#FFF"
       d="M238.018,220.76c-2.472-2.501-5.387-4.487-8.728-5.954c-3.34-1.461-6.919-2.194-10.7-2.194 c-3.804,0-7.374,0.733-10.708,2.194c-3.343,1.467-6.252,3.453-8.724,5.954c-2.481,2.496-4.432,5.422-5.874,8.789 c-1.445,3.364-2.17,6.949-2.17,10.747c0,0.406,0.012,0.806,0.029,1.207c-1.486-2.45-3.074-3.41-4.814-4.238 c0.765-1.254,1.368-2.643,1.794-4.181c0.443-1.538,0.659-3.097,0.659-4.689c0-1.921-0.363-3.809-1.086-5.653 c-0.717-1.85-1.729-3.47-3.023-4.871c-1.299-1.395-2.851-2.517-4.651-3.393c-1.8-0.859-4.542-1.291-6.656-1.291h-7.892 c-1.735,0-3.201,0.601-4.402,1.805c-1.204,1.204-1.808,2.687-1.808,4.466v13.098c-0.299-1.02-0.65-2.024-1.07-3.007 c-1.439-3.366-3.396-6.293-5.88-8.789c-2.47-2.501-5.381-4.487-8.72-5.954c-3.344-1.461-6.917-2.194-10.705-2.194 c-3.801,0-7.369,0.733-10.709,2.194c-3.336,1.467-6.245,3.453-8.717,5.954c-2.484,2.496-4.433,5.422-5.875,8.789 c-1.444,3.364-2.173,6.949-2.173,10.747c0,3.798,0.729,7.377,2.173,10.742c0.57,1.329,1.223,2.589,1.953,3.788 c-0.247-0.024-0.498-0.04-0.759-0.04h-10.89v-35.76c0-1.816-0.605-3.304-1.798-4.432c-1.207-1.128-2.67-1.697-4.399-1.697 c-1.828,0-3.324,0.569-4.506,1.697c-1.18,1.127-1.765,2.615-1.765,4.432v18.442c-0.34-0.083-0.731-0.133-1.199-0.133H60.498 c-1.723,0-3.179,0.602-4.355,1.801c-1.176,1.199-1.762,2.675-1.762,4.398c0,1.73,0.586,3.209,1.762,4.438 c1.177,1.226,2.633,1.833,4.355,1.833h10.811c-1.393,1.757-3.089,3.115-5.103,4.094c-2.028,0.975-4.238,1.466-6.633,1.466 c-2.079,0-4.011-0.409-5.811-1.198c-1.8-0.799-3.391-1.859-4.755-3.217c-1.371-1.347-2.449-2.944-3.253-4.767 c-0.78-1.829-1.179-3.787-1.179-5.854c0-2.069,0.399-4.033,1.179-5.888c0.804-1.855,1.882-3.469,3.253-4.844 c1.365-1.367,2.955-2.473,4.755-3.288c1.8-0.821,3.732-1.226,5.811-1.226c1.67,0,3.355,0.317,5.037,0.968 c1.683,0.651,3.142,1.456,4.403,2.418c1.292,1.155,2.763,1.73,4.388,1.73c1.737,0,3.209-0.603,4.441-1.806 c1.22-1.204,1.828-2.671,1.828-4.395c0-1.438-0.329-2.583-1.004-3.426c-0.674-0.836-1.293-1.526-1.869-2.057 c-0.249-0.186-0.772-0.613-1.589-1.253c-0.824-0.657-1.943-1.324-3.388-2.02c-1.437-0.695-3.184-1.313-5.226-1.844 c-2.041-0.525-4.391-0.788-7.021-0.788c-3.803,0-7.374,0.733-10.709,2.194c-3.34,1.467-6.254,3.453-8.728,5.954 c-2.473,2.496-4.427,5.422-5.872,8.789c-1.445,3.364-2.164,6.949-2.164,10.747c0,3.798,0.719,7.36,2.164,10.697 c1.445,3.344,3.398,6.267,5.872,8.767c2.474,2.496,5.387,4.465,8.728,5.908c3.335,1.439,6.906,2.164,10.709,2.164 c3.788,0,7.354-0.725,10.692-2.164c3.344-1.443,6.25-3.412,8.732-5.908c2.473-2.5,4.432-5.423,5.867-8.767 c0.202-0.465,0.386-0.935,0.559-1.411v11.605c0,1.791,0.643,3.246,1.948,4.373c1.297,1.131,2.853,1.686,4.678,1.686h16.731 c1.825,0,3.31-0.609,4.467-1.834c1.083-1.15,1.654-2.531,1.717-4.135c2.126,1.865,4.529,3.393,7.214,4.574 c3.34,1.459,6.908,2.199,10.709,2.199c3.789,0,7.361-0.74,10.705-2.199c3.338-1.467,6.25-3.465,8.72-5.986 c2.485-2.523,4.441-5.468,5.88-8.827c0.42-0.984,0.771-1.987,1.07-3.007v12.954c0,1.73,0.604,3.209,1.808,4.428 c1.201,1.225,2.667,1.834,4.402,1.834h10.955c2.348-0.039,4.564-0.531,6.624-1.467c2.065-0.941,3.864-2.172,5.376-3.727 c1.519-1.525,2.714-3.334,3.606-5.396c0.748-1.74,1.163-3.597,1.281-5.546c1.438,3.329,3.378,6.251,5.841,8.755 c2.471,2.521,5.38,4.52,8.724,5.986c3.334,1.459,6.905,2.199,10.708,2.199c3.781,0,7.36-0.74,10.7-2.199 c3.341-1.467,6.255-3.465,8.728-5.986c2.47-2.523,4.43-5.468,5.864-8.827c1.444-3.365,2.169-6.944,2.169-10.742 c0-3.797-0.726-7.382-2.169-10.747C242.448,226.183,240.488,223.256,238.018,220.76z M146.724,246.167 c-0.766,1.856-1.836,3.459-3.207,4.825c-1.368,1.375-2.968,2.458-4.787,3.247c-1.831,0.798-3.781,1.188-5.841,1.188 c-2.072,0-4.006-0.39-5.803-1.188c-1.801-0.789-3.391-1.872-4.761-3.247c-1.369-1.366-2.444-2.969-3.234-4.825 c-0.798-1.843-1.192-3.803-1.192-5.872c0-2.068,0.394-4.032,1.192-5.871c0.79-1.855,1.866-3.458,3.234-4.837 c1.371-1.369,2.96-2.463,4.761-3.283c1.797-0.816,3.731-1.22,5.803-1.22c2.06,0,4.01,0.404,5.841,1.22 c1.819,0.82,3.419,1.915,4.787,3.283c1.371,1.379,2.441,2.982,3.207,4.837c0.766,1.839,1.152,3.803,1.152,5.871 C147.876,242.365,147.49,244.324,146.724,246.167z M171.746,225.653h2.876c1.202,0.104,2.107,0.553,2.707,1.335 c0.604,0.798,0.902,1.653,0.902,2.561c0,0.87-0.279,1.662-0.829,2.384c-0.544,0.718-1.385,1.123-2.481,1.221h-3.174V225.653z M179.532,253.227c-0.919,1.043-2.073,1.559-3.463,1.559h-4.324v-10.309h4.324c1.39,0,2.544,0.498,3.463,1.51 c0.915,1.012,1.359,2.205,1.359,3.605C180.892,250.989,180.447,252.198,179.532,253.227z M232.421,246.167 c-0.761,1.856-1.831,3.459-3.201,4.825c-1.369,1.375-2.975,2.458-4.796,3.247c-1.829,0.798-3.773,1.188-5.833,1.188 c-2.077,0-4.003-0.39-5.806-1.188c-1.801-0.789-3.384-1.872-4.761-3.247c-1.366-1.366-2.45-2.969-3.249-4.825 c-0.788-1.843-1.182-3.803-1.182-5.872c0-2.068,0.395-4.032,1.182-5.871c0.799-1.855,1.882-3.458,3.249-4.837 c1.376-1.369,2.96-2.463,4.761-3.283c1.802-0.816,3.729-1.22,5.806-1.22c2.061,0,4.005,0.404,5.833,1.22 c1.821,0.82,3.427,1.915,4.796,3.283c1.371,1.379,2.44,2.982,3.201,4.837c0.771,1.839,1.166,3.803,1.166,5.871 C233.586,242.365,233.192,244.324,232.421,246.167z"
       data-reactid="69"
       id="path107"
       style="fill:#ffffff" />
    <text
       xml:space="preserve"
       style="font-style:normal;font-weight:normal;font-size:40px;line-height:125%;font-family:sans-serif;letter-spacing:0px;word-spacing:0px;fill:#ffffff;fill-opacity:1;stroke:none;stroke-width:1px;stroke-linecap:butt;stroke-linejoin:miter;stroke-opacity:1;"
       x="351.75662"
       y="263.42523"
       id="text142"><tspan
         sodipodi:role="line"
         id="tspan140"
         x="351.75662"
         y="263.42523"
         style="font-style:normal;font-variant:normal;font-weight:bold;font-stretch:normal;font-size:64px;line-height:202.60000229%;font-family:'Roboto Condensed';-inkscape-font-specification:'Roboto Condensed, Bold';letter-spacing:-0.07px;fill:#ffffff;">CHAT</tspan></text>
  </g>
</svg>
