<svg class="" version="1.1" xmlns="http://www.w3.org/2000/svg" xmlns:xlink="http://www.w3.org/1999/xlink" viewBox="0 0 512 512" data-reactid="57"><g data-reactid="58"><path fill="#FFFFFF" d="M148.8,195.9c-33.4,0-60.3,27-60.3,60.1c0,33.1,26.9,60.1,60.3,60.1s60.3-27,60.3-60.1 C209.1,222.9,182.2,195.9,148.8,195.9 M148.8,195.9c-33.4,0-60.3,27-60.3,60.1c0,33.1,26.9,60.1,60.3,60.1s60.3-27,60.3-60.1 C209.1,222.9,182.2,195.9,148.8,195.9 M250,326.1c-32.2,3.4-67.8,4.2-101.2,4.1c-33.3,0.1-69-0.7-101.2-4.1 c-9.3-1-14.3-3.2-15.3-13.3c-1.8-18.4-1.9-37.4-1.9-56.7c0-19.3,0.1-38.3,1.9-56.7c1-10.1,6-12.3,15.3-13.3 c32.2-3.4,67.9-4.2,101.2-4.1c33.4-0.1,69,0.7,101.2,4.1c9.3,1,14.3,3.3,15.3,13.3c1.9,18.4,2,37.4,2,56.7c0,19.3-0.1,38.3-2,56.7 C264.3,322.8,259.3,325.1,250,326.1 M148.8,107.6C66.9,107.6,0.4,174.3,0.4,256c0,81.7,66.5,148.4,148.4,148.4 c82,0,148.4-66.6,148.4-148.4C297.2,174.3,230.7,107.6,148.8,107.6 M148.8,195.9c-33.4,0-60.3,27-60.3,60.1 c0,33.1,26.9,60.1,60.3,60.1s60.3-27,60.3-60.1C209.1,222.9,182.2,195.9,148.8,195.9" data-reactid="59"></path><path fill="#FFFFFF" d="M324.5,197.1c0-9.8,7-13.9,15.5-8.9L442,247.1c8.5,4.9,8.5,13,0,17.9l-102.1,58.9 c-8.5,4.9-15.5,0.9-15.5-8.9V197.1z" data-reactid="60"></path><path fill="#FFFFFF" d="M361.4,105.8c-38.3,0-73.2,14.4-99.8,38c6.5,6.5,12.4,13.6,17.7,21.1c21.8-19.6,50.6-31.6,82.1-31.6 c67.7,0,122.7,55,122.7,122.7c0,67.6-55,122.7-122.7,122.7c-31.6,0-60.4-12-82.1-31.6c-5.3,7.5-11.2,14.6-17.7,21.1 c26.6,23.6,61.5,38,99.8,38c82.8,0,150.2-67.4,150.2-150.2C511.6,173.2,444.2,105.8,361.4,105.8" data-reactid="61"></path></g></svg>